<svg width="143" height="27" viewBox="0 0 143 27" fill="none" xmlns="http://www.w3.org/2000/svg">
<path d="M1.84375 2.59375C2.51042 2.61458 3.09375 2.625 3.59375 2.625C4.09375 2.60417 4.5 2.59375 4.8125 2.59375H5.71875C5.94792 2.57292 6.22917 2.5625 6.5625 2.5625C6.85417 2.5625 7.20833 2.5625 7.625 2.5625C8.04167 2.5625 8.52083 2.57292 9.0625 2.59375C9.22917 3.17708 9.41667 3.75 9.625 4.3125C9.85417 4.85417 10.0521 5.34375 10.2188 5.78125C10.4271 6.30208 10.6354 6.79167 10.8438 7.25C11.0521 7.70833 11.3021 8.26042 11.5938 8.90625C11.8438 9.44792 12.1458 10.1146 12.5 10.9062C12.8542 11.6771 13.2708 12.5625 13.75 13.5625C13.9792 12.9167 14.1875 12.3229 14.375 11.7812C14.5833 11.2396 14.7604 10.7708 14.9062 10.375C15.0729 9.91667 15.2083 9.5 15.3125 9.125C15.4167 8.75 15.5312 8.29167 15.6562 7.75C15.7604 7.29167 15.875 6.73958 16 6.09375C16.1458 5.44792 16.2917 4.69792 16.4375 3.84375C17.0417 3.84375 17.5833 3.84375 18.0625 3.84375C18.5417 3.84375 18.9583 3.83333 19.3125 3.8125C19.7083 3.8125 20.0625 3.80208 20.375 3.78125C20.7083 3.78125 21.1562 3.76042 21.7188 3.71875C22.1979 3.67708 22.8333 3.64583 23.625 3.625C24.4375 3.58333 25.4375 3.53125 26.625 3.46875C26.1875 3.78125 25.8333 4.09375 25.5625 4.40625C25.3125 4.69792 25.1146 4.95833 24.9688 5.1875C24.8021 5.45833 24.6979 5.71875 24.6562 5.96875C24.6146 6.17708 24.5729 6.65625 24.5312 7.40625C24.5104 8.15625 24.4792 9.05208 24.4375 10.0938C24.4167 11.1146 24.3958 12.2083 24.375 13.375C24.375 14.5417 24.3854 15.6458 24.4062 16.6875C24.4271 17.7292 24.4583 18.6354 24.5 19.4062C24.5625 20.1562 24.6458 20.6354 24.75 20.8438C24.8958 21.0938 25.0938 21.3854 25.3438 21.7188C25.5729 22.0104 25.8646 22.3438 26.2188 22.7188C26.5938 23.0938 27.0833 23.5104 27.6875 23.9688C26.7292 24.0104 25.9271 24.0417 25.2812 24.0625C24.6562 24.0833 24.1354 24.1042 23.7188 24.125C23.2396 24.1458 22.8542 24.1562 22.5625 24.1562C22.25 24.1562 21.8229 24.1667 21.2812 24.1875C20.8021 24.2083 20.1667 24.2396 19.375 24.2812C18.5833 24.3021 17.5625 24.3438 16.3125 24.4062C16.6042 24.0729 16.875 23.7396 17.125 23.4062C17.375 23.0729 17.5833 22.7708 17.75 22.5C17.9583 22.1875 18.1354 21.8854 18.2812 21.5938C18.4271 21.1979 18.5417 20.4792 18.625 19.4375C18.7083 18.5417 18.7708 17.2604 18.8125 15.5938C18.8542 13.9062 18.8542 11.6458 18.8125 8.8125C18.4167 9.45833 18.0625 10.1042 17.75 10.75C17.4583 11.375 17.1979 11.9479 16.9688 12.4688C16.7188 13.0729 16.4896 13.6562 16.2812 14.2188C16.0729 14.8021 15.8542 15.4479 15.625 16.1562C15.4167 16.7604 15.1667 17.4792 14.875 18.3125C14.6042 19.1458 14.2917 20.0625 13.9375 21.0625L12.75 21.125C12.5833 20.2917 12.4167 19.5417 12.25 18.875C12.0833 18.1875 11.9167 17.6042 11.75 17.125C11.5625 16.5625 11.375 16.0625 11.1875 15.625C10.9792 15.1875 10.75 14.6979 10.5 14.1562C10.2708 13.6979 9.98958 13.1562 9.65625 12.5312C9.34375 11.9062 8.97917 11.2083 8.5625 10.4375C8.35417 12.5625 8.22917 14.2917 8.1875 15.625C8.14583 16.9375 8.14583 17.9583 8.1875 18.6875C8.22917 19.5625 8.29167 20.1979 8.375 20.5938C8.5 20.9479 8.69792 21.3438 8.96875 21.7812C9.19792 22.1562 9.51042 22.6042 9.90625 23.125C10.3229 23.625 10.8542 24.1875 11.5 24.8125C11.0417 24.8125 10.5625 24.8125 10.0625 24.8125C9.5625 24.8125 9.10417 24.8229 8.6875 24.8438C8.1875 24.8646 7.69792 24.875 7.21875 24.875C6.71875 24.8958 6.13542 24.9271 5.46875 24.9688C4.88542 25.0104 4.1875 25.0521 3.375 25.0938C2.5625 25.1354 1.625 25.2083 0.5625 25.3125C1.02083 25.0208 1.39583 24.7396 1.6875 24.4688C1.97917 24.1771 2.20833 23.9167 2.375 23.6875C2.58333 23.4167 2.73958 23.1458 2.84375 22.875C2.90625 22.7083 2.95833 22.3438 3 21.7812C3.0625 21.2188 3.11458 20.5312 3.15625 19.7188C3.21875 18.9062 3.26042 18 3.28125 17C3.32292 16 3.35417 14.9896 3.375 13.9688C3.41667 12.9271 3.44792 11.9167 3.46875 10.9375C3.48958 9.9375 3.5 9.04167 3.5 8.25C3.52083 7.4375 3.53125 6.76042 3.53125 6.21875C3.53125 5.67708 3.53125 5.33333 3.53125 5.1875C3.46875 4.875 3.375 4.5625 3.25 4.25C3.14583 3.97917 2.97917 3.69792 2.75 3.40625C2.52083 3.11458 2.21875 2.84375 1.84375 2.59375ZM34.8438 19.9688C35.4271 19.9688 35.9688 19.9062 36.4688 19.7812C36.8854 19.6771 37.2812 19.5104 37.6562 19.2812C38.0521 19.0312 38.3125 18.6667 38.4375 18.1875C38.8542 18.2708 39.2083 18.3438 39.5 18.4062C39.7917 18.4479 40.0417 18.4896 40.25 18.5312C40.4792 18.5938 40.6771 18.6354 40.8438 18.6562C41.0104 18.6979 41.2083 18.7396 41.4375 18.7812C41.6458 18.8229 41.8958 18.875 42.1875 18.9375C42.5 18.9792 42.8646 19.0417 43.2812 19.125C42.9688 19.0833 42.6458 19.1146 42.3125 19.2188C42 19.3229 41.6979 19.4375 41.4062 19.5625C41.0729 19.7083 40.7604 19.8854 40.4688 20.0938C40.2812 20.2188 40.0625 20.4062 39.8125 20.6562C39.5833 20.9062 39.25 21.1458 38.8125 21.375C38.375 21.6042 37.7917 21.8021 37.0625 21.9688C36.3542 22.1146 35.4375 22.1667 34.3125 22.125C32.9583 22.0833 31.8229 21.8438 30.9062 21.4062C29.9896 20.9479 29.25 20.3958 28.6875 19.75C28.125 19.0833 27.7188 18.3646 27.4688 17.5938C27.2188 16.8229 27.0833 16.1042 27.0625 15.4375C27.0417 14.7708 27.2396 14.0729 27.6562 13.3438C28.0729 12.6146 28.6562 11.9479 29.4062 11.3438C30.1771 10.7396 31.1042 10.25 32.1875 9.875C33.2708 9.47917 34.4583 9.28125 35.75 9.28125C36.5 9.28125 37.1875 9.375 37.8125 9.5625C38.4583 9.72917 39.0417 9.95833 39.5625 10.25C40.1042 10.5417 40.5729 10.875 40.9688 11.25C41.3646 11.6042 41.6979 11.9688 41.9688 12.3438C42.2396 12.7396 42.4688 13.1562 42.6562 13.5938C42.8229 13.9688 42.9583 14.3958 43.0625 14.875C43.1667 15.3542 43.1979 15.8438 43.1562 16.3438C41.5729 16.3854 40.2917 16.4167 39.3125 16.4375C38.3542 16.4583 37.6042 16.4688 37.0625 16.4688H35.6562H34.5938C34.2188 16.4688 33.7292 16.4792 33.125 16.5C32.5208 16.5208 31.7812 16.5521 30.9062 16.5938C31.0104 17.4271 31.2708 18.0729 31.6875 18.5312C32.125 18.9688 32.5833 19.3021 33.0625 19.5312C33.6042 19.7812 34.1979 19.9271 34.8438 19.9688ZM32.0312 14.3438C32.6979 14.3854 33.25 14.4167 33.6875 14.4375C34.1458 14.4583 34.5208 14.4792 34.8125 14.5C35.125 14.5208 35.375 14.5312 35.5625 14.5312H36.3438C36.8646 14.5312 37.8333 14.5 39.25 14.4375C39.1875 13.5208 38.9896 12.8229 38.6562 12.3438C38.3438 11.8646 38.0104 11.5104 37.6562 11.2812C37.2396 11.0312 36.7812 10.8854 36.2812 10.8438C34.9271 10.8646 33.9167 11.1458 33.25 11.6875C32.6042 12.2292 32.1979 13.1146 32.0312 14.3438ZM45.125 25.875C45.3333 25.5625 45.5 25.2708 45.625 25C45.75 24.7292 45.8542 24.5 45.9375 24.3125C46.0208 24.0833 46.0833 23.875 46.125 23.6875C46.1458 23.5625 46.1562 23.1979 46.1562 22.5938C46.1562 21.9896 46.1354 21.2292 46.0938 20.3125C46.0729 19.3958 46.0417 18.3646 46 17.2188C45.9792 16.0729 45.9375 14.9062 45.875 13.7188C45.8333 12.5312 45.7812 11.375 45.7188 10.25C45.6771 9.125 45.6354 8.11458 45.5938 7.21875C45.5521 6.30208 45.5104 5.55208 45.4688 4.96875C45.4271 4.38542 45.3958 4.05208 45.375 3.96875C45.3333 3.84375 45.2604 3.71875 45.1562 3.59375C44.9479 3.34375 44.5938 3.10417 44.0938 2.875C45.1562 2.60417 45.9688 2.38542 46.5312 2.21875C46.8646 2.13542 47.1562 2.05208 47.4062 1.96875C47.6354 1.88542 47.8646 1.80208 48.0938 1.71875C48.2812 1.63542 48.4896 1.54167 48.7188 1.4375C48.9479 1.3125 49.1562 1.17708 49.3438 1.03125C49.2396 1.63542 49.1562 2.21875 49.0938 2.78125C49.0312 3.34375 48.9792 3.86458 48.9375 4.34375C48.8958 4.88542 48.875 5.40625 48.875 5.90625C48.7708 6.92708 48.7083 8.04167 48.6875 9.25C48.6875 10.4375 48.6979 11.6458 48.7188 12.875C48.7396 14.1042 48.7812 15.3021 48.8438 16.4688C48.9062 17.6354 48.9688 18.6979 49.0312 19.6562C49.1146 20.5938 49.1875 21.3958 49.25 22.0625C49.3333 22.7083 49.3958 23.125 49.4375 23.3125C49.5208 23.625 49.6042 23.9271 49.6875 24.2188C49.7708 24.4688 49.8646 24.7292 49.9688 25C50.0729 25.2917 50.1979 25.5208 50.3438 25.6875H47.3125C47.0417 25.6875 46.7812 25.6979 46.5312 25.7188C46.3021 25.7396 46.0625 25.7604 45.8125 25.7812C45.5625 25.8021 45.3333 25.8333 45.125 25.875ZM59.8438 11C60.3854 11 60.9479 11.1042 61.5312 11.3125C62.1146 11.5 62.6771 11.75 63.2188 12.0625C63.7604 12.3542 64.25 12.6771 64.6875 13.0312C65.1458 13.3646 65.5208 13.6875 65.8125 14C66.3333 14.5625 66.6875 15.3229 66.875 16.2812C67.0833 17.2188 67.125 18.1875 67 19.1875C66.875 20.1667 66.5833 21.0938 66.125 21.9688C65.6667 22.8438 65.0312 23.4896 64.2188 23.9062C63.6354 24.1979 63.0625 24.4271 62.5 24.5938C61.9375 24.7604 61.3958 24.8854 60.875 24.9688C60.3542 25.0521 59.8646 25.0938 59.4062 25.0938C58.9479 25.0938 58.5521 25.0833 58.2188 25.0625C57.5938 25.0208 56.9375 24.8021 56.25 24.4062C55.5833 24.0104 54.9479 23.5208 54.3438 22.9375C53.7604 22.3542 53.2604 21.7188 52.8438 21.0312C52.4271 20.3229 52.1771 19.6562 52.0938 19.0312C51.9688 18.1771 51.9479 17.2812 52.0312 16.3438C52.1146 15.4062 52.4167 14.5417 52.9375 13.75C53.4792 12.9583 54.2917 12.3021 55.375 11.7812C56.4792 11.2604 57.9688 11 59.8438 11ZM58.8125 23.125C59.0417 23.1667 59.3542 23.1146 59.75 22.9688C60.1458 22.8021 60.5312 22.5417 60.9062 22.1875C61.3021 21.8333 61.6458 21.3854 61.9375 20.8438C62.25 20.2812 62.4375 19.6042 62.5 18.8125C62.5625 18.0417 62.5625 17.3333 62.5 16.6875C62.4583 16.0417 62.3646 15.4792 62.2188 15C62.0729 14.5 61.9062 14.0938 61.7188 13.7812C61.5312 13.4688 61.3333 13.25 61.125 13.125C60.7708 12.9375 60.3438 12.7917 59.8438 12.6875C59.3438 12.5625 58.9167 12.5833 58.5625 12.75C58.3958 12.8333 58.1875 13.0104 57.9375 13.2812C57.6875 13.5521 57.4375 13.8958 57.1875 14.3125C56.9375 14.7083 56.7083 15.1667 56.5 15.6875C56.3125 16.2083 56.1771 16.75 56.0938 17.3125C56.0104 17.875 55.9896 18.4792 56.0312 19.125C56.0938 19.7708 56.2292 20.3854 56.4375 20.9688C56.6458 21.5312 56.9375 22.0208 57.3125 22.4375C57.7083 22.8333 58.2083 23.0625 58.8125 23.125ZM83.8438 1.0625C84.2396 1.08333 84.6667 1.09375 85.125 1.09375C85.5208 1.09375 85.9688 1.10417 86.4688 1.125C86.9896 1.125 87.5312 1.10417 88.0938 1.0625C87.5938 1.29167 87.1562 1.625 86.7812 2.0625C86.4062 2.5 86.1042 2.9375 85.875 3.375C85.5833 3.89583 85.3438 4.4375 85.1562 5C85.0521 5.33333 84.9688 5.92708 84.9062 6.78125C84.8438 7.61458 84.7917 8.59375 84.75 9.71875C84.7292 10.8438 84.7188 12.0312 84.7188 13.2812C84.7188 14.5312 84.7292 15.7292 84.75 16.875C84.7708 18 84.8021 19 84.8438 19.875C84.8854 20.75 84.9375 21.3646 85 21.7188C85.0833 22.1354 85.1875 22.5312 85.3125 22.9062C85.4167 23.2396 85.5521 23.5833 85.7188 23.9375C85.8854 24.2708 86.0938 24.5417 86.3438 24.75L83.1562 26.1875C82.9896 25.9583 82.8542 25.7188 82.75 25.4688C82.6458 25.2396 82.5625 25.0312 82.5 24.8438C82.4167 24.6146 82.3646 24.4062 82.3438 24.2188C82.3021 23.9688 82.2604 23.6979 82.2188 23.4062C82.1771 23.0938 82.125 22.8021 82.0625 22.5312C82.0208 22.2396 81.9896 22 81.9688 21.8125C81.9479 21.625 81.9479 21.5104 81.9688 21.4688C81.9896 21.4271 81.8646 21.6146 81.5938 22.0312C81.3229 22.4271 80.9167 22.8958 80.375 23.4375C79.8542 23.9583 79.2083 24.4688 78.4375 24.9688C77.6667 25.4479 76.8021 25.75 75.8438 25.875C74.8646 26 73.9583 25.8125 73.125 25.3125C72.3125 24.8125 71.6146 24.1146 71.0312 23.2188C70.4479 22.3021 70 21.25 69.6875 20.0625C69.3958 18.8542 69.2812 17.625 69.3438 16.375C69.3854 15.5417 69.5729 14.8021 69.9062 14.1562C70.2396 13.4896 70.6562 12.9167 71.1562 12.4375C71.6771 11.9375 72.2396 11.5208 72.8438 11.1875C73.4688 10.8333 74.0729 10.5417 74.6562 10.3125C75.2604 10.0833 75.8229 9.91667 76.3438 9.8125C76.8646 9.70833 77.2812 9.63542 77.5938 9.59375C77.9688 9.57292 78.3958 9.63542 78.875 9.78125C79.2917 9.90625 79.7708 10.1146 80.3125 10.4062C80.875 10.6979 81.5 11.1354 82.1875 11.7188C82.0625 9.63542 81.9479 7.96875 81.8438 6.71875C81.7396 5.44792 81.6354 4.47917 81.5312 3.8125C81.4271 3.02083 81.3333 2.47917 81.25 2.1875C81.1458 1.97917 81.0104 1.77083 80.8438 1.5625C80.6979 1.39583 80.5104 1.22917 80.2812 1.0625C80.0729 0.875 79.8229 0.729167 79.5312 0.625C80.0729 0.729167 80.5938 0.802083 81.0938 0.84375C81.5938 0.885417 82.0521 0.927083 82.4688 0.96875C82.9479 1.01042 83.4062 1.04167 83.8438 1.0625ZM76 12.7188C75.6042 12.8646 75.2812 13.1146 75.0312 13.4688C74.8021 13.8229 74.6146 14.25 74.4688 14.75C74.3229 15.2292 74.2188 15.75 74.1562 16.3125C74.1146 16.8542 74.0833 17.3854 74.0625 17.9062C74.0625 18.4062 74.0625 18.8646 74.0625 19.2812C74.0625 19.6979 74.0625 20.0104 74.0625 20.2188C74.0625 20.3438 74.0833 20.5729 74.125 20.9062C74.1875 21.2188 74.3125 21.5521 74.5 21.9062C74.6875 22.2396 74.9479 22.5417 75.2812 22.8125C75.6354 23.0833 76.1042 23.2188 76.6875 23.2188C77.1667 23.1771 77.6771 23.0104 78.2188 22.7188C78.6979 22.4688 79.2396 22.0729 79.8438 21.5312C80.4688 20.9688 81.1354 20.1667 81.8438 19.125C81.8021 18.4583 81.7708 17.9062 81.75 17.4688C81.75 17.0312 81.7396 16.6771 81.7188 16.4062C81.6979 16.0938 81.6875 15.8438 81.6875 15.6562V15.1875C81.6875 15.0625 81.6875 14.9271 81.6875 14.7812C81.6875 14.6354 81.6979 14.5 81.7188 14.375C81.1354 13.9583 80.6146 13.6042 80.1562 13.3125C79.7188 13 79.2812 12.7708 78.8438 12.625C78.4271 12.4583 77.9896 12.3854 77.5312 12.4062C77.0938 12.4062 76.5833 12.5104 76 12.7188ZM87.4375 11.0312L93.1875 11.0938C92.8542 12.3646 92.6042 13.4479 92.4375 14.3438C92.2917 15.2396 92.1979 15.9896 92.1562 16.5938C92.0729 17.2812 92.0521 17.8646 92.0938 18.3438C92.1562 18.7812 92.2604 19.25 92.4062 19.75C92.5312 20.1667 92.7188 20.6458 92.9688 21.1875C93.2188 21.7292 93.5521 22.2708 93.9688 22.8125C93.7188 22.7292 93.4479 22.6667 93.1562 22.625C92.8646 22.5833 92.5938 22.5521 92.3438 22.5312C92.0521 22.5104 91.7604 22.5104 91.4688 22.5312C91.1771 22.5521 90.8542 22.5833 90.5 22.625C90.2083 22.6667 89.8542 22.7188 89.4375 22.7812C89.0208 22.8438 88.5833 22.9271 88.125 23.0312C88.4375 22.0938 88.6771 21.2812 88.8438 20.5938C89.0312 19.9062 89.1667 19.3333 89.25 18.875C89.3333 18.3333 89.3854 17.8958 89.4062 17.5625C89.4062 17.1458 89.4062 16.6771 89.4062 16.1562C89.4062 15.6146 89.4062 15.0938 89.4062 14.5938C89.4062 14.0938 89.3958 13.6562 89.375 13.2812C89.3542 12.8854 89.3125 12.6354 89.25 12.5312L88.9375 12.2188C88.8125 12.1146 88.625 11.9688 88.375 11.7812C88.1458 11.5729 87.8333 11.3229 87.4375 11.0312ZM89.6562 6.21875C90.0938 5.98958 90.5312 5.92708 90.9688 6.03125C91.4271 6.13542 91.7812 6.33333 92.0312 6.625C92.2812 6.91667 92.3646 7.26042 92.2812 7.65625C92.2188 8.05208 91.8854 8.4375 91.2812 8.8125C90.6771 9.16667 90.1458 9.29167 89.6875 9.1875C89.2292 9.08333 88.9062 8.86458 88.7188 8.53125C88.5312 8.19792 88.5 7.8125 88.625 7.375C88.75 6.91667 89.0938 6.53125 89.6562 6.21875ZM103.469 11C104.01 11 104.573 11.1042 105.156 11.3125C105.74 11.5 106.302 11.75 106.844 12.0625C107.385 12.3542 107.875 12.6771 108.312 13.0312C108.771 13.3646 109.146 13.6875 109.438 14C109.958 14.5625 110.312 15.3229 110.5 16.2812C110.708 17.2188 110.75 18.1875 110.625 19.1875C110.5 20.1667 110.208 21.0938 109.75 21.9688C109.292 22.8438 108.656 23.4896 107.844 23.9062C107.26 24.1979 106.688 24.4271 106.125 24.5938C105.562 24.7604 105.021 24.8854 104.5 24.9688C103.979 25.0521 103.49 25.0938 103.031 25.0938C102.573 25.0938 102.177 25.0833 101.844 25.0625C101.219 25.0208 100.562 24.8021 99.875 24.4062C99.2083 24.0104 98.5729 23.5208 97.9688 22.9375C97.3854 22.3542 96.8854 21.7188 96.4688 21.0312C96.0521 20.3229 95.8021 19.6562 95.7188 19.0312C95.5938 18.1771 95.5729 17.2812 95.6562 16.3438C95.7396 15.4062 96.0417 14.5417 96.5625 13.75C97.1042 12.9583 97.9167 12.3021 99 11.7812C100.104 11.2604 101.594 11 103.469 11ZM102.438 23.125C102.667 23.1667 102.979 23.1146 103.375 22.9688C103.771 22.8021 104.156 22.5417 104.531 22.1875C104.927 21.8333 105.271 21.3854 105.562 20.8438C105.875 20.2812 106.062 19.6042 106.125 18.8125C106.188 18.0417 106.188 17.3333 106.125 16.6875C106.083 16.0417 105.99 15.4792 105.844 15C105.698 14.5 105.531 14.0938 105.344 13.7812C105.156 13.4688 104.958 13.25 104.75 13.125C104.396 12.9375 103.969 12.7917 103.469 12.6875C102.969 12.5625 102.542 12.5833 102.188 12.75C102.021 12.8333 101.812 13.0104 101.562 13.2812C101.312 13.5521 101.062 13.8958 100.812 14.3125C100.562 14.7083 100.333 15.1667 100.125 15.6875C99.9375 16.2083 99.8021 16.75 99.7188 17.3125C99.6354 17.875 99.6146 18.4792 99.6562 19.125C99.7188 19.7708 99.8542 20.3854 100.062 20.9688C100.271 21.5312 100.562 22.0208 100.938 22.4375C101.333 22.8333 101.833 23.0625 102.438 23.125ZM112.281 10.625C112.823 10.7292 113.292 10.8125 113.688 10.875C114.104 10.9167 114.458 10.9583 114.75 11C115.083 11.0417 115.375 11.0729 115.625 11.0938C115.875 11.1146 116.167 11.1354 116.5 11.1562C117.062 11.1771 117.854 11.1771 118.875 11.1562C118.271 11.1146 117.792 11.2708 117.438 11.625C117.104 11.9583 116.854 12.3438 116.688 12.7812C116.479 13.3021 116.365 13.9062 116.344 14.5938C116.302 15.5104 116.323 16.3438 116.406 17.0938C116.51 17.8229 116.688 18.4479 116.938 18.9688C117.208 19.4688 117.562 19.8438 118 20.0938C118.438 20.3229 119 20.3854 119.688 20.2812C120.375 20.1771 120.896 19.9375 121.25 19.5625C121.625 19.1667 121.896 18.6875 122.062 18.125C122.229 17.5417 122.323 16.8854 122.344 16.1562C122.385 15.4271 122.417 14.6667 122.438 13.875C122.438 13.0833 122.427 12.5208 122.406 12.1875C122.406 11.8333 122.396 11.6042 122.375 11.5C122.354 11.3958 122.323 11.3542 122.281 11.375C122.24 11.375 122.188 11.3229 122.125 11.2188C122.083 11.1354 122.021 11.0521 121.938 10.9688C121.875 10.8854 121.792 10.7917 121.688 10.6875C121.583 10.5625 121.469 10.4375 121.344 10.3125C121.885 10.3333 122.365 10.3542 122.781 10.375C123.219 10.375 123.583 10.3854 123.875 10.4062C124.208 10.4271 124.5 10.4479 124.75 10.4688C124.979 10.4896 125.281 10.5208 125.656 10.5625C125.969 10.6042 126.375 10.6458 126.875 10.6875C127.375 10.7292 127.969 10.7917 128.656 10.875C128.177 10.9792 127.792 11.1354 127.5 11.3438C127.208 11.5521 126.979 11.7604 126.812 11.9688C126.625 12.1979 126.49 12.4479 126.406 12.7188C126.344 13.0729 126.344 13.6146 126.406 14.3438C126.448 14.9896 126.552 15.875 126.719 17C126.885 18.125 127.146 19.6042 127.5 21.4375L125.031 22.9062L124.531 18.75C123.927 19.7708 123.281 20.5625 122.594 21.125C121.927 21.6667 121.302 22.0625 120.719 22.3125C120.031 22.6042 119.365 22.7708 118.719 22.8125C117.865 22.8125 117.125 22.7604 116.5 22.6562C115.896 22.5312 115.375 22.375 114.938 22.1875C114.5 22 114.146 21.7917 113.875 21.5625C113.625 21.3125 113.438 21.0625 113.312 20.8125C113.021 20.2917 112.865 19.625 112.844 18.8125C112.823 17.9792 112.854 17.1562 112.938 16.3438C113.021 15.5104 113.115 14.75 113.219 14.0625C113.323 13.375 113.354 12.9062 113.312 12.6562C113.271 12.4688 113.208 12.2604 113.125 12.0312C113.042 11.8438 112.938 11.6354 112.812 11.4062C112.688 11.1562 112.51 10.8958 112.281 10.625ZM142.906 7.15625C142.719 7.61458 142.552 8.03125 142.406 8.40625C142.281 8.78125 142.167 9.11458 142.062 9.40625C141.958 9.73958 141.865 10.0312 141.781 10.2812C141.698 10.5729 141.604 10.9062 141.5 11.2812C141.396 11.6146 141.26 12.0312 141.094 12.5312C140.948 13.0104 140.771 13.5833 140.562 14.25C140.396 13.25 140.094 12.4583 139.656 11.875C139.219 11.2708 138.771 10.8021 138.312 10.4688C137.771 10.0938 137.188 9.82292 136.562 9.65625C135.438 9.46875 134.625 9.48958 134.125 9.71875C133.625 9.94792 133.292 10.2396 133.125 10.5938C133.042 10.7396 132.948 10.9271 132.844 11.1562C132.76 11.3646 132.688 11.5833 132.625 11.8125C132.583 12.0417 132.573 12.2708 132.594 12.5C132.615 12.7292 132.708 12.9167 132.875 13.0625C132.979 13.1667 133.25 13.3125 133.688 13.5C134.125 13.6667 134.646 13.8646 135.25 14.0938C135.875 14.3021 136.531 14.5312 137.219 14.7812C137.927 15.0312 138.594 15.2812 139.219 15.5312C139.844 15.7812 140.385 16.0312 140.844 16.2812C141.302 16.5312 141.604 16.7604 141.75 16.9688C141.875 17.1771 142.01 17.4583 142.156 17.8125C142.323 18.1458 142.438 18.5208 142.5 18.9375C142.583 19.3333 142.604 19.75 142.562 20.1875C142.542 20.6042 142.427 21.0208 142.219 21.4375C142.01 21.8542 141.677 22.2396 141.219 22.5938C140.781 22.9479 140.188 23.2396 139.438 23.4688C138.562 23.7396 137.719 23.8125 136.906 23.6875C136.094 23.5625 135.344 23.375 134.656 23.125C133.99 22.875 133.406 22.6354 132.906 22.4062C132.406 22.1562 132.052 22.0521 131.844 22.0938C131.615 22.1354 131.354 22.25 131.062 22.4375C130.771 22.625 130.49 22.8229 130.219 23.0312C129.969 23.2188 129.75 23.3958 129.562 23.5625C129.375 23.7083 129.281 23.7604 129.281 23.7188C129.281 23.6771 129.312 23.5521 129.375 23.3438C129.458 23.1354 129.542 22.8854 129.625 22.5938C129.729 22.2812 129.823 21.9479 129.906 21.5938C130.01 21.2188 130.083 20.8646 130.125 20.5312C130.167 20.2604 130.219 19.9271 130.281 19.5312C130.323 19.1771 130.375 18.75 130.438 18.25C130.521 17.7292 130.615 17.1042 130.719 16.375C130.823 16.9167 130.969 17.3854 131.156 17.7812C131.365 18.1771 131.562 18.5208 131.75 18.8125C131.979 19.1458 132.198 19.4271 132.406 19.6562C132.719 19.9479 133.083 20.2188 133.5 20.4688C133.938 20.7188 134.375 20.9375 134.812 21.125C135.25 21.2917 135.667 21.3958 136.062 21.4375C136.458 21.4792 136.792 21.4375 137.062 21.3125C137.333 21.1875 137.562 20.9583 137.75 20.625C137.958 20.2917 138.104 19.9271 138.188 19.5312C138.271 19.1354 138.302 18.7604 138.281 18.4062C138.26 18.0312 138.167 17.7292 138 17.5C137.875 17.3542 137.583 17.1667 137.125 16.9375C136.688 16.7083 136.156 16.4583 135.531 16.1875C134.927 15.9167 134.281 15.6354 133.594 15.3438C132.927 15.0521 132.292 14.7604 131.688 14.4688C131.104 14.1562 130.615 13.8646 130.219 13.5938C129.844 13.3021 129.635 13.0417 129.594 12.8125C129.552 12.4792 129.521 12.1146 129.5 11.7188C129.479 11.3021 129.5 10.8958 129.562 10.5C129.646 10.0833 129.792 9.6875 130 9.3125C130.229 8.9375 130.562 8.625 131 8.375C131.292 8.20833 131.677 8.08333 132.156 8C132.635 7.91667 133.167 7.875 133.75 7.875C134.333 7.85417 134.938 7.875 135.562 7.9375C136.188 7.97917 136.781 8.04167 137.344 8.125C137.927 8.1875 138.448 8.27083 138.906 8.375C139.385 8.47917 139.75 8.57292 140 8.65625C140.292 8.76042 140.604 8.77083 140.938 8.6875C141.229 8.625 141.542 8.48958 141.875 8.28125C142.208 8.07292 142.552 7.69792 142.906 7.15625Z" fill="white"/>
</svg>
