<svg width="12" height="12" viewBox="0 0 12 12" fill="none" xmlns="http://www.w3.org/2000/svg">
<path d="M11.793 3.16466C11.6634 2.52012 11.3404 1.93037 10.8672 1.474C10.3939 1.01763 9.79285 0.716305 9.14403 0.61016C8.65654 0.532452 8.15769 0.568516 7.68645 0.715534C7.21521 0.862553 6.78435 1.11654 6.42753 1.45766C6.31138 1.56568 6.15864 1.62572 6.00003 1.62572C5.84141 1.62572 5.68868 1.56568 5.57253 1.45766C4.9801 0.884642 4.18963 0.561966 3.36544 0.556706C2.54125 0.551446 1.74673 0.864007 1.14704 1.42942C0.547345 1.99483 0.18861 2.76959 0.145401 3.59267C0.102192 4.41575 0.377832 5.22382 0.915027 5.84891L5.35203 11.1364C5.43144 11.2309 5.53056 11.3068 5.64243 11.359C5.75431 11.4111 5.87623 11.4381 5.99965 11.4381C6.12307 11.4381 6.24499 11.4111 6.35687 11.359C6.46875 11.3068 6.56787 11.2309 6.64728 11.1364L11.0843 5.84891C11.398 5.48471 11.6249 5.05394 11.7477 4.58917C11.8705 4.12441 11.886 3.6378 11.793 3.16616V3.16466Z" fill="white"/>
</svg>
