<svg width="24" height="24" viewBox="0 0 24 24" fill="none" xmlns="http://www.w3.org/2000/svg">
<path d="M5.47994 18.4908V15.5708C5.47994 14.6008 6.23994 13.7308 7.31994 13.7308C8.28994 13.7308 9.15994 14.4908 9.15994 15.5708V18.3808C9.15994 20.3308 7.53995 21.9508 5.58995 21.9508C3.63995 21.9508 2.01994 20.3208 2.01994 18.3808V12.2208C1.90994 6.60078 6.34995 2.05078 11.9699 2.05078C17.5899 2.05078 22.0199 6.60078 22.0199 12.1108V18.2708C22.0199 20.2208 20.3999 21.8408 18.4499 21.8408C16.4999 21.8408 14.8799 20.2208 14.8799 18.2708V15.4608C14.8799 14.4908 15.6399 13.6208 16.7199 13.6208C17.6899 13.6208 18.5599 14.3808 18.5599 15.4608V18.4908" stroke="#9B9B9B" stroke-width="1.5" stroke-linecap="round" stroke-linejoin="round"/>
<path d="M15.53 9.12001H14.72C14.6111 9.1212 14.5045 9.15151 14.4113 9.20778C14.3181 9.26405 14.2417 9.34423 14.19 9.44001L13.44 10.94C13.33 11.16 13.02 11.16 12.91 10.94L11.07 7.27001C10.96 7.06001 10.66 7.05001 10.55 7.26001L9.70996 8.81001C9.60996 9.00001 9.40996 9.12001 9.18996 9.12001H8.45996" stroke="#9B9B9B" stroke-width="1.5" stroke-linecap="round" stroke-linejoin="round"/>
</svg>
