<svg width="35" height="35" viewBox="0 0 35 35" fill="none" xmlns="http://www.w3.org/2000/svg">
<rect x="4.35718" y="4.56055" width="26.2857" height="26.2857" rx="13.1429" stroke="white" stroke-width="8"/>
<path fill-rule="evenodd" clip-rule="evenodd" d="M17.4999 31.4169C21.1372 31.4169 24.6255 29.972 27.1974 27.4C29.7693 24.8281 31.2142 21.3398 31.2142 17.7026C31.2142 14.0653 29.7693 10.577 27.1974 8.0051C24.6255 5.43318 21.1372 3.98828 17.4999 3.98828C13.8627 3.98828 10.3744 5.43318 7.80247 8.0051C5.23054 10.577 3.78564 14.0653 3.78564 17.7026C3.78564 21.3398 5.23054 24.8281 7.80247 27.4C10.3744 29.972 13.8627 31.4169 17.4999 31.4169ZM16.7371 12.8477C16.4789 12.6755 16.1788 12.5765 15.8688 12.5615C15.5588 12.5464 15.2506 12.6158 14.9769 12.7622C14.7033 12.9086 14.4745 13.1266 14.315 13.3928C14.1555 13.6591 14.0713 13.9636 14.0714 14.274V21.1311C14.0713 21.4415 14.1555 21.746 14.315 22.0123C14.4745 22.2785 14.7033 22.4965 14.9769 22.6429C15.2506 22.7893 15.5588 22.8587 15.8688 22.8437C16.1788 22.8286 16.4789 22.7297 16.7371 22.5574L21.8799 19.1289C22.1147 18.9723 22.3072 18.7602 22.4404 18.5114C22.5735 18.2626 22.6432 17.9848 22.6432 17.7026C22.6432 17.4204 22.5735 17.1425 22.4404 16.8937C22.3072 16.6449 22.1147 16.4328 21.8799 16.2763L16.7371 12.8477Z" fill="white"/>
</svg>
