<svg width="24" height="24" viewBox="0 0 24 24" fill="none" xmlns="http://www.w3.org/2000/svg">
<rect width="24" height="24" rx="2" fill="white"/>
<g clip-path="url(#clip0_204_9547)">
<path d="M17.4375 12C17.4375 12.1492 17.3782 12.2923 17.2727 12.3977C17.1673 12.5032 17.0242 12.5625 16.875 12.5625H12.5625V16.875C12.5625 17.0242 12.5032 17.1673 12.3977 17.2727C12.2923 17.3782 12.1492 17.4375 12 17.4375C11.8508 17.4375 11.7077 17.3782 11.6023 17.2727C11.4968 17.1673 11.4375 17.0242 11.4375 16.875V12.5625H7.125C6.97582 12.5625 6.83274 12.5032 6.72725 12.3977C6.62176 12.2923 6.5625 12.1492 6.5625 12C6.5625 11.8508 6.62176 11.7077 6.72725 11.6023C6.83274 11.4968 6.97582 11.4375 7.125 11.4375H11.4375V7.125C11.4375 6.97582 11.4968 6.83274 11.6023 6.72725C11.7077 6.62176 11.8508 6.5625 12 6.5625C12.1492 6.5625 12.2923 6.62176 12.3977 6.72725C12.5032 6.83274 12.5625 6.97582 12.5625 7.125V11.4375H16.875C17.0242 11.4375 17.1673 11.4968 17.2727 11.6023C17.3782 11.7077 17.4375 11.8508 17.4375 12Z" fill="black"/>
</g>
<defs>
<clipPath id="clip0_204_9547">
<rect width="12" height="12" fill="white" transform="translate(6 6)"/>
</clipPath>
</defs>
</svg>
